<mxfile host="app.diagrams.net" modified="2023-11-06T20:01:44.116Z" agent="Mozilla/5.0 (Windows NT 10.0; Win64; x64) AppleWebKit/537.36 (KHTML, like Gecko) Chrome/118.0.0.0 Safari/537.36" etag="D9iQrCKfumhMKl8I2pzu" version="22.0.8" type="device">
  <diagram name="Trang-1" id="kEbHzQw09F2Yxlw5cS9Z">
    <mxGraphModel dx="1434" dy="1965" grid="1" gridSize="10" guides="1" tooltips="1" connect="1" arrows="1" fold="1" page="1" pageScale="1" pageWidth="827" pageHeight="1169" math="0" shadow="0">
      <root>
        <mxCell id="0" />
        <mxCell id="1" parent="0" />
        <mxCell id="AzoCv6siCz_hXwixM8if-1" value="" style="edgeStyle=orthogonalEdgeStyle;rounded=0;orthogonalLoop=1;jettySize=auto;html=1;" edge="1" parent="1" source="AzoCv6siCz_hXwixM8if-2" target="AzoCv6siCz_hXwixM8if-7">
          <mxGeometry relative="1" as="geometry" />
        </mxCell>
        <mxCell id="AzoCv6siCz_hXwixM8if-2" value="Start&amp;nbsp;" style="ellipse;whiteSpace=wrap;html=1;" vertex="1" parent="1">
          <mxGeometry x="370" y="-1030" width="120" height="80" as="geometry" />
        </mxCell>
        <mxCell id="AzoCv6siCz_hXwixM8if-3" value="" style="edgeStyle=orthogonalEdgeStyle;rounded=0;orthogonalLoop=1;jettySize=auto;html=1;" edge="1" parent="1" source="AzoCv6siCz_hXwixM8if-7" target="AzoCv6siCz_hXwixM8if-9">
          <mxGeometry relative="1" as="geometry" />
        </mxCell>
        <mxCell id="AzoCv6siCz_hXwixM8if-4" value="" style="edgeStyle=orthogonalEdgeStyle;rounded=0;orthogonalLoop=1;jettySize=auto;html=1;" edge="1" parent="1" source="AzoCv6siCz_hXwixM8if-7" target="AzoCv6siCz_hXwixM8if-11">
          <mxGeometry relative="1" as="geometry">
            <Array as="points">
              <mxPoint x="400" y="-790" />
              <mxPoint x="320" y="-790" />
            </Array>
          </mxGeometry>
        </mxCell>
        <mxCell id="AzoCv6siCz_hXwixM8if-5" value="" style="edgeStyle=orthogonalEdgeStyle;rounded=0;orthogonalLoop=1;jettySize=auto;html=1;" edge="1" parent="1" source="AzoCv6siCz_hXwixM8if-7" target="AzoCv6siCz_hXwixM8if-13">
          <mxGeometry relative="1" as="geometry" />
        </mxCell>
        <mxCell id="AzoCv6siCz_hXwixM8if-6" value="" style="edgeStyle=orthogonalEdgeStyle;rounded=0;orthogonalLoop=1;jettySize=auto;html=1;" edge="1" parent="1" source="AzoCv6siCz_hXwixM8if-7" target="AzoCv6siCz_hXwixM8if-15">
          <mxGeometry relative="1" as="geometry" />
        </mxCell>
        <mxCell id="AzoCv6siCz_hXwixM8if-7" value="nháº­p a,b" style="shape=parallelogram;perimeter=parallelogramPerimeter;whiteSpace=wrap;html=1;fixedSize=1;" vertex="1" parent="1">
          <mxGeometry x="370" y="-900" width="120" height="60" as="geometry" />
        </mxCell>
        <mxCell id="AzoCv6siCz_hXwixM8if-8" value="" style="edgeStyle=orthogonalEdgeStyle;rounded=0;orthogonalLoop=1;jettySize=auto;html=1;" edge="1" parent="1" source="AzoCv6siCz_hXwixM8if-9" target="AzoCv6siCz_hXwixM8if-17">
          <mxGeometry relative="1" as="geometry" />
        </mxCell>
        <mxCell id="AzoCv6siCz_hXwixM8if-9" value="+" style="shape=parallelogram;perimeter=parallelogramPerimeter;whiteSpace=wrap;html=1;fixedSize=1;" vertex="1" parent="1">
          <mxGeometry x="100" y="-730" width="120" height="60" as="geometry" />
        </mxCell>
        <mxCell id="AzoCv6siCz_hXwixM8if-10" value="" style="edgeStyle=orthogonalEdgeStyle;rounded=0;orthogonalLoop=1;jettySize=auto;html=1;" edge="1" parent="1" source="AzoCv6siCz_hXwixM8if-11" target="AzoCv6siCz_hXwixM8if-19">
          <mxGeometry relative="1" as="geometry" />
        </mxCell>
        <mxCell id="AzoCv6siCz_hXwixM8if-11" value="-" style="shape=parallelogram;perimeter=parallelogramPerimeter;whiteSpace=wrap;html=1;fixedSize=1;" vertex="1" parent="1">
          <mxGeometry x="260" y="-740" width="120" height="60" as="geometry" />
        </mxCell>
        <mxCell id="AzoCv6siCz_hXwixM8if-12" value="" style="edgeStyle=orthogonalEdgeStyle;rounded=0;orthogonalLoop=1;jettySize=auto;html=1;" edge="1" parent="1" source="AzoCv6siCz_hXwixM8if-13" target="AzoCv6siCz_hXwixM8if-21">
          <mxGeometry relative="1" as="geometry" />
        </mxCell>
        <mxCell id="AzoCv6siCz_hXwixM8if-13" value="*" style="shape=parallelogram;perimeter=parallelogramPerimeter;whiteSpace=wrap;html=1;fixedSize=1;" vertex="1" parent="1">
          <mxGeometry x="450" y="-740" width="120" height="60" as="geometry" />
        </mxCell>
        <mxCell id="AzoCv6siCz_hXwixM8if-14" value="" style="edgeStyle=orthogonalEdgeStyle;rounded=0;orthogonalLoop=1;jettySize=auto;html=1;" edge="1" parent="1" source="AzoCv6siCz_hXwixM8if-15" target="AzoCv6siCz_hXwixM8if-23">
          <mxGeometry relative="1" as="geometry" />
        </mxCell>
        <mxCell id="AzoCv6siCz_hXwixM8if-15" value="/" style="shape=parallelogram;perimeter=parallelogramPerimeter;whiteSpace=wrap;html=1;fixedSize=1;" vertex="1" parent="1">
          <mxGeometry x="600" y="-730" width="120" height="60" as="geometry" />
        </mxCell>
        <mxCell id="AzoCv6siCz_hXwixM8if-16" style="edgeStyle=orthogonalEdgeStyle;rounded=0;orthogonalLoop=1;jettySize=auto;html=1;exitX=0.5;exitY=1;exitDx=0;exitDy=0;entryX=0;entryY=0.5;entryDx=0;entryDy=0;" edge="1" parent="1" source="AzoCv6siCz_hXwixM8if-17" target="AzoCv6siCz_hXwixM8if-24">
          <mxGeometry relative="1" as="geometry" />
        </mxCell>
        <mxCell id="AzoCv6siCz_hXwixM8if-17" value="a + b" style="shape=parallelogram;perimeter=parallelogramPerimeter;whiteSpace=wrap;html=1;fixedSize=1;" vertex="1" parent="1">
          <mxGeometry x="100" y="-590" width="120" height="60" as="geometry" />
        </mxCell>
        <mxCell id="AzoCv6siCz_hXwixM8if-18" style="edgeStyle=orthogonalEdgeStyle;rounded=0;orthogonalLoop=1;jettySize=auto;html=1;exitX=0.5;exitY=1;exitDx=0;exitDy=0;entryX=0;entryY=0;entryDx=0;entryDy=0;" edge="1" parent="1" source="AzoCv6siCz_hXwixM8if-19" target="AzoCv6siCz_hXwixM8if-24">
          <mxGeometry relative="1" as="geometry">
            <Array as="points">
              <mxPoint x="320" y="-428" />
            </Array>
          </mxGeometry>
        </mxCell>
        <mxCell id="AzoCv6siCz_hXwixM8if-19" value="a - b" style="shape=parallelogram;perimeter=parallelogramPerimeter;whiteSpace=wrap;html=1;fixedSize=1;" vertex="1" parent="1">
          <mxGeometry x="260" y="-600" width="120" height="60" as="geometry" />
        </mxCell>
        <mxCell id="AzoCv6siCz_hXwixM8if-20" style="edgeStyle=orthogonalEdgeStyle;rounded=0;orthogonalLoop=1;jettySize=auto;html=1;exitX=0.5;exitY=1;exitDx=0;exitDy=0;" edge="1" parent="1" source="AzoCv6siCz_hXwixM8if-21" target="AzoCv6siCz_hXwixM8if-24">
          <mxGeometry relative="1" as="geometry">
            <Array as="points">
              <mxPoint x="510" y="-430" />
            </Array>
          </mxGeometry>
        </mxCell>
        <mxCell id="AzoCv6siCz_hXwixM8if-21" value="a * b" style="shape=parallelogram;perimeter=parallelogramPerimeter;whiteSpace=wrap;html=1;fixedSize=1;" vertex="1" parent="1">
          <mxGeometry x="450" y="-600" width="120" height="60" as="geometry" />
        </mxCell>
        <mxCell id="AzoCv6siCz_hXwixM8if-22" style="edgeStyle=orthogonalEdgeStyle;rounded=0;orthogonalLoop=1;jettySize=auto;html=1;exitX=0.5;exitY=1;exitDx=0;exitDy=0;entryX=1;entryY=0.5;entryDx=0;entryDy=0;" edge="1" parent="1" source="AzoCv6siCz_hXwixM8if-23" target="AzoCv6siCz_hXwixM8if-24">
          <mxGeometry relative="1" as="geometry" />
        </mxCell>
        <mxCell id="AzoCv6siCz_hXwixM8if-23" value="a / b" style="shape=parallelogram;perimeter=parallelogramPerimeter;whiteSpace=wrap;html=1;fixedSize=1;" vertex="1" parent="1">
          <mxGeometry x="600" y="-600" width="120" height="60" as="geometry" />
        </mxCell>
        <mxCell id="AzoCv6siCz_hXwixM8if-24" value="end" style="ellipse;whiteSpace=wrap;html=1;" vertex="1" parent="1">
          <mxGeometry x="370" y="-440" width="120" height="80" as="geometry" />
        </mxCell>
      </root>
    </mxGraphModel>
  </diagram>
</mxfile>
